#!OML:ASF H:\Dans Jumps\Project 1\Capture day 1\Session 1\subject.ASF
:FULLY-SPECIFIED
:DEGREES
96
root 0.524423 17.6052 -13.6694 7.11164 -0.311293 -1.02039
lowerback -3.46599 -0.732316 -0.382775
upperback 1.36118 -1.01422 1.72798
thorax 3.38282 -0.533137 1.92978
lowerneck -13.4519 0.44229 -1.81337
upperneck 13.2273 0.96972 -0.0387928
head 6.21816 0.373799 0.372663
rclavicle 3.37934e-015 -3.97569e-016
rhumerus -27.8615 -19.3038 -77.5025
rradius 22.4778
rwrist 34.945
rhand -19.3825 -26.8954
rfingers 7.12502
rthumb 6.9359 -56.7618
lclavicle 3.37934e-015 -3.97569e-016
lhumerus -23.5675 6.05153 86.2309
lradius 14.4058
lwrist -1.36449
lhand -25.6389 -4.66585
lfingers 7.12502
lthumb 0.894539 25.312
rfemur -11.2988 -3.66301 20.331
rtibia 19.6441
rfoot -14.4394 -3.72863
rtoes 14.0907
lfemur -10.0759 8.6244 -19.6057
ltibia 16.3779
lfoot -11.654 3.64555
ltoes 2.52575
97
root 0.525567 17.6049 -13.6727 7.10324 -0.309805 -1.02891
lowerback -3.44633 -0.73134 -0.383636
upperback 1.36092 -1.01294 1.73349
thorax 3.37152 -0.532528 1.93625
lowerneck -13.4644 0.447598 -1.79745
upperneck 13.2408 0.975996 -0.0507944
head 6.22468 0.376531 0.366912
rclavicle 4.67144e-015 -1.59028e-014
rhumerus -27.8514 -19.304 -77.4883
rradius 22.477
rwrist 34.9571
rhand -19.3944 -26.8806
rfingers 7.12502
rthumb 6.92445 -56.7474
lclavicle 4.67144e-015 -1.59028e-014
lhumerus -23.5651 6.03485 86.234
lradius 14.4121
lwrist -1.38035
lhand -25.6131 -4.63069
lfingers 7.12502
lthumb 0.919456 25.3471
rfemur -11.3061 -3.6578 20.3363
rtibia 19.6528
rfoot -14.4325 -3.73392
rtoes 14.0947
lfemur -10.0893 8.62445 -19.5993
ltibia 16.3992
lfoot -11.6567 3.63621
ltoes 2.5399
98
root 0.526662 17.6045 -13.6759 7.09584 -0.307476 -1.03648
lowerback -3.42623 -0.73052 -0.386153
upperback 1.36049 -1.01179 1.73903
thorax 3.35984 -0.532015 1.94368
lowerneck -13.4753 0.451965 -1.78216
upperneck 13.2507 0.98103 -0.0626152
head 6.22978 0.378677 0.361189
rclavicle 2.5842e-015 -1.31198e-014
rhumerus -27.84 -19.3026 -77.4765
rradius 22.4785
rwrist 34.9638
rhand -19.3982 -26.8689
rfingers 7.12502
rthumb 6.92079 -56.7357
lclavicle 2.5842e-015 -1.31198e-014
lhumerus -23.5634 6.01419 86.2388
lradius 14.4231
lwrist -1.3943
lhand -25.583 -4.58801
lfingers 7.12502
lthumb 0.948464 25.3896
rfemur -11.3158 -3.65147 20.3413
rtibia 19.6631
rfoot -14.4253 -3.74167
rtoes 14.097
lfemur -10.1045 8.62617 -19.5942
ltibia 16.4198
lfoot -11.6576 3.62507
ltoes 2.54155
99
root 0.527841 17.6042 -13.6793 7.0898 -0.305312 -1.04025
lowerback -3.40762 -0.729479 -0.391795
upperback 1.36079 -1.01018 1.74358
thorax 3.34979 -0.531341 1.95185
lowerneck -13.4865 0.454878 -1.76907
upperneck 13.2568 0.984295 -0.073102
head 6.23371 0.379995 0.356075
rclavicle -7.55382e-015 2.0276e-014
rhumerus -27.8273 -19.2965 -77.468
rradius 22.4842
rwrist 34.96
rhand -19.3946 -26.8613
rfingers 7.12502
rthumb 6.92429 -56.728
lclavicle -7.55382e-015 2.0276e-014
lhumerus -23.5607 5.99222 86.2454
lradius 14.4361
lwrist -1.40666
lhand -25.5572 -4.55639
lfingers 7.12502
lthumb 0.973367 25.4211
rfemur -11.3286 -3.64759 20.3417
rtibia 19.6762
rfoot -14.4195 -3.74755
rtoes 14.1001
lfemur -10.12 8.62664 -19.5945
ltibia 16.437
lfoot -11.6564 3.61553
ltoes 2.53445
100
root 0.529037 17.6039 -13.6827 7.0836 -0.303052 -1.04014
lowerback -3.38978 -0.728298 -0.401401
upperback 1.36225 -1.00818 1.74707
thorax 3.3414 -0.530563 1.96117
lowerneck -13.4952 0.456915 -1.76096
upperneck 13.259 0.986337 -0.0775673
head 6.23594 0.380999 0.353558
rclavicle -1.50082e-014 6.36111e-015
rhumerus -27.8131 -19.2931 -77.4607
rradius 22.4907
rwrist 34.9551
rhand -19.3898 -26.8531
rfingers 7.12502
rthumb 6.92893 -56.7197
lclavicle -1.50082e-014 6.36111e-015
lhumerus -23.557 5.96773 86.2538
lradius 14.4517
lwrist -1.41178
lhand -25.5354 -4.53245
lfingers 7.12502
lthumb 0.994486 25.445
rfemur -11.343 -3.64576 20.3377
rtibia 19.6927
rfoot -14.4156 -3.75157
rtoes 14.095
lfemur -10.1333 8.62789 -19.5993
ltibia 16.4498
lfoot -11.6536 3.60507
ltoes 2.53064
101
root 0.530272 17.6036 -13.6861 7.07607 -0.301931 -1.0356
lowerback -3.37167 -0.726925 -0.415142
upperback 1.36483 -1.00571 1.74937
thorax 3.33404 -0.529636 1.97161
lowerneck -13.4992 0.456988 -1.75995
upperneck 13.2576 0.986154 -0.0765881
head 6.23618 0.381048 0.353698
rclavicle -6.95746e-016 -4.77083e-015
rhumerus -27.7973 -19.2905 -77.4542
rradius 22.4964
rwrist 34.9468
rhand -19.3836 -26.8491
rfingers 7.12502
rthumb 6.93486 -56.7155
lclavicle -6.95746e-016 -4.77083e-015
lhumerus -23.5522 5.93497 86.2657
lradius 14.468
lwrist -1.39917
lhand -25.5298 -4.52381
lfingers 7.12502
lthumb 0.999835 25.4536
rfemur -11.3568 -3.64422 20.3283
rtibia 19.7113
rfoot -14.4133 -3.75477
rtoes 14.0856
lfemur -10.143 8.6275 -19.6091
ltibia 16.4594
lfoot -11.6511 3.59532
ltoes 2.53824
102
root 0.531496 17.6033 -13.6895 7.0688 -0.301704 -1.0301
lowerback -3.35436 -0.725935 -0.430153
upperback 1.36908 -1.00371 1.75131
thorax 3.32889 -0.528989 1.98235
lowerneck -13.5026 0.455594 -1.76452
upperneck 13.2551 0.984223 -0.0701625
head 6.23591 0.380426 0.356318
rclavicle 1.00386e-014 6.36111e-015
rhumerus -27.7785 -19.2886 -77.4504
rradius 22.5028
rwrist 34.9382
rhand -19.3759 -26.8459
rfingers 7.12502
rthumb 6.94228 -56.7121
lclavicle 1.00386e-014 6.36111e-015
lhumerus -23.5425 5.89565 86.2794
lradius 14.4837
lwrist -1.37228
lhand -25.5289 -4.51515
lfingers 7.12502
lthumb 1.00076 25.4623
rfemur -11.3709 -3.64284 20.3178
rtibia 19.7303
rfoot -14.4123 -3.75683
rtoes 14.0765
lfemur -10.1522 8.62753 -19.62
ltibia 16.4681
lfoot -11.6492 3.58605
ltoes 2.55081
